<svg xmlns="http://www.w3.org/2000/svg" viewBox="0 0 40 40"><defs><style>.cls-1{fill:#ce788e;}.cls-2{fill:#fff;}</style></defs><title>Recurso 1</title><g id="Capa_2" data-name="Capa 2"><g id="Capa_1-2" data-name="Capa 1"><path class="cls-1" d="M40,9.18A9.18,9.18,0,0,0,30.82,0H9.18A9.18,9.18,0,0,0,0,9.18V30.82A9.18,9.18,0,0,0,9.18,40H30.82A9.18,9.18,0,0,0,40,30.82Z"/><path class="cls-2" d="M26.89,8.31h-13a5.1,5.1,0,0,0-5.1,5.11v13a5.1,5.1,0,0,0,5.1,5.1h13a5.1,5.1,0,0,0,5.1-5.1v-13A5.11,5.11,0,0,0,26.89,8.31Zm1.78,5.32-1.93-.11c-1,.05-1.09.73-1.09.73l0,2.29,2.73.06-.22,3H25.6l0,9.22H21.44l0-9.17H19.84V16.52h1.71s0-2.12,0-2.9a3.63,3.63,0,0,1,1.26-2.46,3.78,3.78,0,0,1,2.32-.73h3.54v3.2Z"/></g></g></svg>