<svg xmlns="http://www.w3.org/2000/svg" viewBox="0 0 1195.39 58.97"><defs><style>.cls-1{fill:#d776a8;}</style></defs><title>Recurso 3</title><g id="Capa_2" data-name="Capa 2"><g id="Capa_1-2" data-name="Capa 1"><rect class="cls-1" width="91.95" height="1.11"/><rect class="cls-1" y="3.71" width="91.95" height="1.11"/><rect class="cls-1" y="11.13" width="91.95" height="1.11"/><rect class="cls-1" y="7.42" width="91.95" height="1.11"/><path class="cls-1" d="M72.8,30.1a.06.06,0,0,1,0,0,15.77,15.77,0,0,1,2.87-2.28c3.41-2.43,8.09-5.75,8.09-8.81v-.56H79.22c-2.36,0-3.21,1.22-3.21,2.37H77.5a1.17,1.17,0,0,1,.43-.95,2.23,2.23,0,0,1,1.29-.31h3C81.6,22.08,77.45,25,74.63,27c-.75.53-1.36,1-1.84,1.34V17.24a1.1,1.1,0,0,1,.5-.89A2.11,2.11,0,0,1,74.54,16H92V14.85H74.54c-1.79,0-3.24,1.07-3.24,2.39V30.11H72.8Z"/><path class="cls-1" d="M92,43H76.67c-1.61,0-2.69,0-3.18-.37s-.7-1.24-.7-2.85c0-4.48.75-5,5.61-8.57l1.36-1c3.68-2.7,6.33-4.92,7.85-7.08V39.56H79a1.21,1.21,0,0,1-.72-.22.64.64,0,0,1-.28-.51c0-2.54,2.49-4.08,4.32-5.22l.59-.37v2.12h1.5V31.6h-1.5c0,.21-.91.75-1.55,1.15-1.93,1.2-4.86,3-4.86,6.07a1.65,1.65,0,0,0,.72,1.3,3,3,0,0,0,1.77.55H89.09V19.05H87.6c-.08,3.32-3.18,6.23-8.9,10.42l-1.35,1c-4.9,3.57-6.06,4.41-6.06,9.37,0,2,.31,3,1.13,3.64s2.32.69,4.24.69H92V43Z"/><path class="cls-1" d="M20.46,17.23a2.12,2.12,0,0,0-.93-1.68,3.86,3.86,0,0,0-2.31-.71H0V16H17.22a2.13,2.13,0,0,1,1.25.38,1.14,1.14,0,0,1,.51.89V28.38c-.49-.37-1.1-.81-1.83-1.33-2.82-2-7-5-7.57-7.44h3a2.23,2.23,0,0,1,1.29.3,1.18,1.18,0,0,1,.43.95h1.49a2.09,2.09,0,0,0-.86-1.73,3.9,3.9,0,0,0-2.35-.64H8v.56c0,3.06,4.68,6.38,8.1,8.81A15.63,15.63,0,0,1,19,30.14v0h1.49V17.23Z"/><path class="cls-1" d="M14.42,30.45l-1.35-1c-5.71-4.2-8.83-7.1-8.9-10.42H2.67l0,21.63H12.77a3,3,0,0,0,1.77-.55,1.61,1.61,0,0,0,.72-1.29c0-3.06-2.92-4.87-4.86-6.07-.63-.4-1.51-.94-1.55-1.16H7.36v3.75H8.85V33.23c.19.12,4.92,3.05,4.92,5.58,0,.41-.45.74-1,.74H4.19l0-16.37c1.52,2.15,4.16,4.36,7.84,7.07l1.36,1C18.23,34.79,19,35.33,19,39.82c0,1.61-.22,2.49-.7,2.85S16.72,43,15.1,43H0v1.11H15.09c1.92,0,3.31,0,4.24-.69s1.14-1.62,1.14-3.64C20.47,34.86,19.31,34,14.42,30.45Z"/><path class="cls-1" d="M26.8,30.14a16.36,16.36,0,0,1,2.88-2.28c3.42-2.43,8.1-5.75,8.1-8.81v-.56H33.25c-2.37,0-3.22,1.22-3.22,2.37h1.5a1.14,1.14,0,0,1,.43-.95,2.23,2.23,0,0,1,1.29-.31h3C35.64,22.08,31.47,25,28.64,27c-.74.53-1.35,1-1.84,1.34V17.24a1.09,1.09,0,0,1,.51-.89A2.07,2.07,0,0,1,28.56,16H63.63a2.1,2.1,0,0,1,1.25.38,1.09,1.09,0,0,1,.49.89V28.38c-.48-.37-1.09-.81-1.84-1.33-2.82-2-7-5-7.56-7.44h3a2.23,2.23,0,0,1,1.29.3,1.18,1.18,0,0,1,.43.95h1.49a2.1,2.1,0,0,0-.87-1.73,3.87,3.87,0,0,0-2.34-.64H54.41v.56c0,3.06,4.68,6.38,8.1,8.81,1.22.86,2.86,2.26,2.86,2.24h1.5V17.24a2.16,2.16,0,0,0-.94-1.69,3.9,3.9,0,0,0-2.3-.7H28.56c-1.79,0-3.24,1.07-3.24,2.39V30.11Z"/><path class="cls-1" d="M60.83,30.45l-1.36-1c-5.71-4.2-8.81-7.1-8.9-10.42H49.08l0,21.07v.56H59.16a3,3,0,0,0,1.77-.55,1.64,1.64,0,0,0,.73-1.29c0-3.06-2.94-4.87-4.86-6.07-.64-.4-1.51-.94-1.55-1.16H53.76v3.75h1.49V33.23l.6.37c1.82,1.13,4.31,2.68,4.31,5.21,0,.41-.45.74-1,.74H50.58V23.18c1.52,2.15,4.17,4.37,7.85,7.07l1.36,1c4.86,3.54,5.6,4.09,5.6,8.57,0,1.61-.21,2.49-.7,2.85S63.11,43,61.5,43H30.68c-1.62,0-2.69,0-3.19-.36s-.7-1.24-.7-2.85c0-4.49.75-5,5.62-8.58l1.35-1c3.68-2.71,6.33-4.92,7.85-7.08V39.57H33a1.23,1.23,0,0,1-.72-.22.67.67,0,0,1-.29-.51c0-2.54,2.5-4.09,4.33-5.22l.59-.37v2.11h1.49V31.6H36.93c0,.22-.91.76-1.54,1.16-1.94,1.19-4.86,3-4.87,6.07a1.61,1.61,0,0,0,.73,1.3,3,3,0,0,0,1.76.54h10.1V19.05h-1.5c-.07,3.32-3.18,6.23-8.9,10.42l-1.35,1C26.47,34,25.3,34.86,25.3,39.82c0,2,.32,3,1.14,3.64s2.31.69,4.23.69H61.49c1.92,0,3.3,0,4.24-.69s1.14-1.63,1.14-3.64C66.89,34.86,65.72,34,60.83,30.45Z"/><rect class="cls-1" y="46.73" width="91.95" height="1.11"/><rect class="cls-1" y="50.44" width="91.95" height="1.11"/><rect class="cls-1" y="54.15" width="91.95" height="1.11"/><path class="cls-1" d="M92,57.86H0V59H92Z"/><rect class="cls-1" x="91.95" width="91.95" height="1.11"/><rect class="cls-1" x="91.95" y="3.71" width="91.95" height="1.11"/><rect class="cls-1" x="91.95" y="11.13" width="91.95" height="1.11"/><rect class="cls-1" x="91.95" y="7.42" width="91.95" height="1.11"/><path class="cls-1" d="M164.75,30.1a.06.06,0,0,1,0,0,15.59,15.59,0,0,1,2.88-2.28c3.42-2.43,8.09-5.75,8.09-8.81v-.56h-4.53c-2.36,0-3.21,1.22-3.21,2.37h1.5a1.14,1.14,0,0,1,.43-.95,2.19,2.19,0,0,1,1.28-.31h3c-.58,2.48-4.74,5.44-7.56,7.44-.75.53-1.35,1-1.84,1.34V17.24a1.1,1.1,0,0,1,.5-.89,2.12,2.12,0,0,1,1.26-.39H184V14.85H166.51c-1.8,0-3.24,1.07-3.24,2.39V30.11h1.49Z"/><path class="cls-1" d="M183.91,43H168.62c-1.62,0-2.69,0-3.19-.37s-.7-1.24-.7-2.85c0-4.48.75-5,5.61-8.57l1.36-1c3.68-2.7,6.33-4.92,7.85-7.08V39.56H171a1.21,1.21,0,0,1-.72-.22.64.64,0,0,1-.28-.51c0-2.54,2.5-4.08,4.33-5.22.2-.13.41-.25.58-.37v2.12h1.5V31.6h-1.5c0,.21-.91.75-1.55,1.15-1.93,1.2-4.85,3-4.85,6.07a1.62,1.62,0,0,0,.72,1.3,3,3,0,0,0,1.76.55H181V19.05h-1.5c-.08,3.32-3.18,6.23-8.9,10.42l-1.35,1c-4.89,3.57-6.06,4.41-6.06,9.37,0,2,.32,3,1.14,3.64s2.31.69,4.24.69H183.9V43Z"/><path class="cls-1" d="M112.41,17.23a2.12,2.12,0,0,0-.93-1.68,3.86,3.86,0,0,0-2.31-.71H92V16h17.22a2.18,2.18,0,0,1,1.26.38,1.16,1.16,0,0,1,.5.89V28.38c-.49-.37-1.09-.81-1.83-1.33-2.83-2-7-5-7.57-7.44h3a2.23,2.23,0,0,1,1.29.3,1.15,1.15,0,0,1,.43.95h1.5a2.1,2.1,0,0,0-.87-1.73,3.9,3.9,0,0,0-2.35-.64H100v.56c0,3.06,4.68,6.38,8.1,8.81A15.82,15.82,0,0,1,111,30.14v0h1.49V17.23Z"/><path class="cls-1" d="M106.36,30.45l-1.35-1c-5.71-4.2-8.83-7.1-8.9-10.42h-1.5l0,21.63h10.08a3,3,0,0,0,1.77-.55,1.61,1.61,0,0,0,.72-1.29c0-3.06-2.92-4.87-4.85-6.07-.64-.4-1.52-.94-1.55-1.16H99.3v3.75h1.5V33.23c.18.12,4.92,3.05,4.91,5.58,0,.41-.45.74-1,.74H96.14V23.18c1.52,2.15,4.16,4.37,7.84,7.07l1.37,1c4.85,3.54,5.6,4.09,5.6,8.57,0,1.61-.22,2.49-.7,2.85s-1.56.37-3.18.37H92v1.12h15.09c1.92,0,3.31,0,4.24-.69s1.14-1.63,1.14-3.64C112.42,34.86,111.26,34,106.36,30.45Z"/><path class="cls-1" d="M118.76,30.14a16.36,16.36,0,0,1,2.86-2.28c3.42-2.43,8.1-5.75,8.1-8.81v-.56h-4.53c-2.36,0-3.21,1.22-3.21,2.37h1.49a1.17,1.17,0,0,1,.43-.95,2.23,2.23,0,0,1,1.29-.31h3c-.57,2.48-4.73,5.44-7.56,7.44-.75.53-1.36,1-1.84,1.34V17.24a1.08,1.08,0,0,1,.5-.89A2.11,2.11,0,0,1,120.5,16h35.07a2.06,2.06,0,0,1,1.25.38,1.11,1.11,0,0,1,.5.89V28.38c-.49-.37-1.1-.81-1.84-1.33-2.82-2-7-5-7.57-7.44h3a2.23,2.23,0,0,1,1.29.3,1.18,1.18,0,0,1,.43.95h1.49a2.09,2.09,0,0,0-.86-1.73,3.9,3.9,0,0,0-2.35-.64h-4.53v.56c0,3.06,4.68,6.38,8.1,8.81,1.22.86,2.87,2.26,2.87,2.24h1.49V17.24a2.18,2.18,0,0,0-.93-1.69,3.93,3.93,0,0,0-2.31-.7H120.5c-1.79,0-3.24,1.07-3.24,2.39V30.11Z"/><path class="cls-1" d="M152.78,30.45l-1.36-1c-5.71-4.2-8.81-7.1-8.9-10.42H141l0,21.07v.56h10.07a3,3,0,0,0,1.76-.55,1.62,1.62,0,0,0,.73-1.29c0-3.06-2.93-4.87-4.86-6.07-.64-.4-1.51-.94-1.55-1.16h-1.49v3.75h1.49V33.23l.6.37c1.82,1.13,4.31,2.68,4.31,5.21,0,.41-.44.74-1,.74h-8.59V23.18c1.53,2.15,4.17,4.37,7.85,7.07l1.36,1c4.86,3.54,5.61,4.09,5.61,8.57,0,1.61-.22,2.49-.71,2.85s-1.56.37-3.18.37H122.63c-1.61,0-2.69,0-3.18-.36s-.7-1.24-.7-2.85c0-4.49.74-5,5.61-8.58l1.35-1c3.68-2.71,6.33-4.92,7.86-7.08V39.57H125a1.19,1.19,0,0,1-.72-.22.64.64,0,0,1-.29-.51c0-2.54,2.49-4.09,4.32-5.22l.59-.37v2.11h1.49V31.6h-1.49c0,.22-.91.76-1.55,1.16-1.93,1.19-4.86,3-4.87,6.07a1.63,1.63,0,0,0,.73,1.3,3,3,0,0,0,1.77.54h10.09V19.05h-1.49c-.08,3.32-3.19,6.23-8.9,10.42l-1.36,1c-4.89,3.57-6.06,4.41-6.06,9.37,0,2,.32,3,1.14,3.64s2.32.69,4.23.69h30.82c1.93,0,3.31,0,4.24-.69s1.14-1.63,1.14-3.64C158.83,34.86,157.67,34,152.78,30.45Z"/><rect class="cls-1" x="91.95" y="46.73" width="91.95" height="1.11"/><rect class="cls-1" x="91.95" y="50.44" width="91.95" height="1.11"/><rect class="cls-1" x="91.95" y="54.15" width="91.95" height="1.11"/><path class="cls-1" d="M183.9,57.86H92V59h92Z"/><rect class="cls-1" x="183.9" width="91.95" height="1.11"/><rect class="cls-1" x="183.9" y="3.71" width="91.95" height="1.11"/><rect class="cls-1" x="183.9" y="11.13" width="91.95" height="1.11"/><rect class="cls-1" x="183.9" y="7.42" width="91.95" height="1.11"/><path class="cls-1" d="M256.69,30.1a.06.06,0,0,1,0,0,16.56,16.56,0,0,1,2.87-2.28c3.42-2.43,8.1-5.75,8.1-8.81v-.56h-4.53c-2.36,0-3.21,1.22-3.21,2.37h1.49a1.17,1.17,0,0,1,.43-.95,2.2,2.2,0,0,1,1.29-.31h3c-.58,2.48-4.74,5.44-7.56,7.44-.74.53-1.35,1-1.84,1.34V17.24a1.09,1.09,0,0,1,.51-.89,2.07,2.07,0,0,1,1.25-.39h17.45V14.85H258.44c-1.79,0-3.24,1.07-3.24,2.39V30.11h1.5Z"/><path class="cls-1" d="M275.87,43h-15.3c-1.62,0-2.69,0-3.19-.37s-.7-1.24-.7-2.85c0-4.48.75-5,5.62-8.57l1.35-1c3.68-2.7,6.33-4.92,7.86-7.08V39.56h-8.6a1.21,1.21,0,0,1-.72-.22.67.67,0,0,1-.28-.51c0-2.54,2.5-4.08,4.33-5.22l.59-.37v2.12h1.49V31.6h-1.49c0,.21-.92.75-1.55,1.15-1.94,1.2-4.86,3-4.86,6.07a1.62,1.62,0,0,0,.72,1.3,3,3,0,0,0,1.76.55H273V19.05H271.5c-.09,3.32-3.19,6.23-8.9,10.42l-1.36,1c-4.89,3.57-6.06,4.41-6.06,9.37,0,2,.32,3,1.14,3.64s2.32.69,4.24.69h15.3V43Z"/><path class="cls-1" d="M204.37,17.23a2.13,2.13,0,0,0-.94-1.68,3.83,3.83,0,0,0-2.3-.71H183.9V16h17.23a2.18,2.18,0,0,1,1.25.38,1.16,1.16,0,0,1,.5.89V28.38c-.48-.37-1.09-.81-1.83-1.33-2.82-2-7-5-7.56-7.44h3a2.23,2.23,0,0,1,1.29.3,1.17,1.17,0,0,1,.42.95h1.5a2.1,2.1,0,0,0-.87-1.73,3.87,3.87,0,0,0-2.34-.64h-4.53v.56c0,3.06,4.68,6.38,8.09,8.81a14.93,14.93,0,0,1,2.87,2.28v0h1.5V17.23Z"/><path class="cls-1" d="M198.31,30.45l-1.35-1c-5.71-4.2-8.82-7.1-8.9-10.42h-1.49l0,21.63h10.07a3,3,0,0,0,1.78-.55,1.63,1.63,0,0,0,.72-1.29c0-3.06-2.93-4.87-4.86-6.07-.64-.4-1.51-.94-1.55-1.16h-1.5v3.75h1.5V33.23c.19.12,4.91,3.05,4.91,5.58,0,.41-.45.74-1,.74h-8.57V23.18c1.52,2.15,4.16,4.37,7.84,7.07l1.37,1c4.85,3.54,5.6,4.09,5.6,8.57,0,1.61-.21,2.49-.7,2.85S200.63,43,199,43H183.91v1.12H199c1.91,0,3.3,0,4.24-.69s1.14-1.63,1.14-3.64C204.37,34.86,203.21,34,198.31,30.45Z"/><path class="cls-1" d="M210.71,30.14a16.16,16.16,0,0,1,2.87-2.28c3.42-2.43,8.1-5.75,8.1-8.81v-.56h-4.53c-2.36,0-3.21,1.22-3.21,2.37h1.49a1.17,1.17,0,0,1,.43-.95,2.23,2.23,0,0,1,1.29-.31h3c-.57,2.48-4.73,5.44-7.56,7.44-.75.53-1.36,1-1.84,1.34V17.24a1.1,1.1,0,0,1,.5-.89,2.11,2.11,0,0,1,1.25-.39h35.07a2.06,2.06,0,0,1,1.25.38,1.11,1.11,0,0,1,.5.89V28.38c-.49-.37-1.09-.81-1.84-1.33-2.82-2-7-5-7.57-7.44h3a2.23,2.23,0,0,1,1.29.3,1.15,1.15,0,0,1,.43.95h1.5a2.1,2.1,0,0,0-.87-1.73,3.9,3.9,0,0,0-2.35-.64h-4.53v.56c0,3.06,4.68,6.38,8.1,8.81,1.22.86,2.87,2.26,2.87,2.24h1.49V17.24a2.15,2.15,0,0,0-.93-1.69,3.93,3.93,0,0,0-2.31-.7H212.46c-1.79,0-3.24,1.07-3.24,2.39V30.11Z"/><path class="cls-1" d="M244.72,30.45l-1.35-1c-5.72-4.2-8.82-7.1-8.9-10.42H233l0,21.07v.56h10.07a2.93,2.93,0,0,0,1.76-.55,1.62,1.62,0,0,0,.73-1.29c0-3.06-2.93-4.87-4.85-6.07-.65-.4-1.52-.94-1.55-1.16h-1.5v3.75h1.5V33.23l.59.37c1.82,1.13,4.32,2.68,4.32,5.21,0,.41-.45.74-1,.74h-8.58V23.18c1.52,2.15,4.16,4.37,7.84,7.07l1.36,1c4.86,3.54,5.61,4.09,5.61,8.57,0,1.61-.22,2.49-.7,2.85S247,43,245.39,43H214.57c-1.61,0-2.69,0-3.18-.36s-.7-1.24-.7-2.85c0-4.49.75-5,5.61-8.58l1.36-1c3.68-2.71,6.33-4.92,7.85-7.08V39.57h-8.59a1.23,1.23,0,0,1-.72-.22.64.64,0,0,1-.29-.51c0-2.54,2.49-4.09,4.32-5.22l.59-.37v2.11h1.5V31.6h-1.5c0,.22-.9.76-1.54,1.16-1.93,1.19-4.86,3-4.86,6.07a1.62,1.62,0,0,0,.72,1.3,3,3,0,0,0,1.77.54H227V19.05h-1.49c-.07,3.32-3.18,6.23-8.9,10.42l-1.35,1c-4.9,3.57-6.07,4.41-6.07,9.37,0,2,.32,3,1.14,3.64s2.32.69,4.23.69h30.82c1.93,0,3.31,0,4.24-.69s1.14-1.63,1.14-3.64C250.78,34.86,249.62,34,244.72,30.45Z"/><rect class="cls-1" x="183.9" y="46.73" width="91.95" height="1.11"/><rect class="cls-1" x="183.9" y="50.44" width="91.95" height="1.11"/><rect class="cls-1" x="183.9" y="54.15" width="91.95" height="1.11"/><path class="cls-1" d="M275.86,57.86h-92V59h92Z"/><rect class="cls-1" x="275.86" width="91.95" height="1.11"/><rect class="cls-1" x="275.86" y="3.71" width="91.95" height="1.11"/><rect class="cls-1" x="275.86" y="11.13" width="91.95" height="1.11"/><rect class="cls-1" x="275.86" y="7.42" width="91.95" height="1.11"/><path class="cls-1" d="M348.65,30.1a.06.06,0,0,1,0,0,15.77,15.77,0,0,1,2.87-2.28c3.42-2.43,8.1-5.75,8.1-8.81v-.56h-4.53c-2.36,0-3.21,1.22-3.21,2.37h1.49a1.17,1.17,0,0,1,.43-.95,2.2,2.2,0,0,1,1.29-.31h3c-.58,2.48-4.73,5.44-7.55,7.44-.75.53-1.36,1-1.84,1.34V17.24a1.08,1.08,0,0,1,.5-.89A2.11,2.11,0,0,1,350.4,16h17.46V14.85H350.4c-1.79,0-3.24,1.07-3.24,2.39V30.11h1.5Z"/><path class="cls-1" d="M367.82,43h-15.3c-1.61,0-2.69,0-3.18-.37s-.7-1.24-.7-2.85c0-4.48.74-5,5.61-8.57l1.35-1c3.68-2.7,6.34-4.92,7.86-7.08V39.56h-8.59a1.19,1.19,0,0,1-.72-.22.64.64,0,0,1-.28-.51c0-2.54,2.49-4.08,4.32-5.22l.59-.37v2.12h1.49V31.6h-1.49c0,.21-.92.75-1.55,1.15-1.93,1.2-4.86,3-4.86,6.07a1.62,1.62,0,0,0,.72,1.3,3,3,0,0,0,1.77.55h10.09V19.05h-1.49c-.09,3.32-3.19,6.23-8.9,10.42l-1.36,1c-4.89,3.57-6.06,4.41-6.06,9.37,0,2,.32,3,1.14,3.64s2.32.69,4.24.69h15.3V43Z"/><path class="cls-1" d="M296.31,17.23a2.15,2.15,0,0,0-.93-1.68,3.86,3.86,0,0,0-2.31-.71H275.85V16h17.22a2.15,2.15,0,0,1,1.25.38,1.13,1.13,0,0,1,.5.89V28.38c-.48-.37-1.09-.81-1.83-1.33-2.82-2-7-5-7.56-7.44h3a2.23,2.23,0,0,1,1.29.3,1.18,1.18,0,0,1,.43.95h1.49a2.1,2.1,0,0,0-.87-1.73,3.87,3.87,0,0,0-2.34-.64h-4.53v.56c0,3.06,4.68,6.38,8.1,8.81a15.63,15.63,0,0,1,2.87,2.28v0h1.5V17.23Z"/><path class="cls-1" d="M290.27,30.45l-1.36-1c-5.7-4.2-8.82-7.1-8.9-10.42h-1.49l0,21.63h10.07a3,3,0,0,0,1.78-.55,1.61,1.61,0,0,0,.72-1.29c0-3.06-2.93-4.87-4.86-6.07-.63-.4-1.51-.94-1.55-1.16h-1.49v3.75h1.49V33.23c.19.12,4.92,3.05,4.91,5.58,0,.41-.44.74-1,.74H280V23.18c1.52,2.15,4.17,4.37,7.85,7.07l1.36,1c4.86,3.54,5.6,4.09,5.6,8.57,0,1.61-.21,2.49-.7,2.85S292.58,43,291,43h-15.1v1.12H291c1.91,0,3.3,0,4.24-.69s1.14-1.63,1.14-3.64C296.32,34.86,295.16,34,290.27,30.45Z"/><path class="cls-1" d="M302.65,30.14a16,16,0,0,1,2.88-2.28c3.42-2.43,8.09-5.75,8.09-8.81v-.56h-4.53c-2.36,0-3.21,1.22-3.21,2.37h1.5a1.14,1.14,0,0,1,.43-.95,2.21,2.21,0,0,1,1.28-.31h3c-.57,2.48-4.74,5.44-7.57,7.44-.75.53-1.35,1-1.84,1.34V17.24a1.09,1.09,0,0,1,.51-.89,2.07,2.07,0,0,1,1.25-.39h35.06a2.11,2.11,0,0,1,1.26.38,1.12,1.12,0,0,1,.49.89V28.38c-.48-.37-1.09-.81-1.84-1.33-2.82-2-7-5-7.56-7.44h3a2.23,2.23,0,0,1,1.29.3,1.17,1.17,0,0,1,.42.95H338a2.1,2.1,0,0,0-.87-1.73,3.87,3.87,0,0,0-2.34-.64h-4.53v.56c0,3.06,4.68,6.38,8.09,8.81,1.23.86,2.87,2.26,2.87,2.24h1.5V17.24a2.16,2.16,0,0,0-.94-1.69,3.91,3.91,0,0,0-2.31-.7H304.41c-1.8,0-3.24,1.07-3.24,2.39V30.11Z"/><path class="cls-1" d="M336.67,30.45l-1.35-1c-5.72-4.2-8.82-7.1-8.9-10.42h-1.5l0,21.07v.56H335a3,3,0,0,0,1.77-.55,1.63,1.63,0,0,0,.72-1.29c0-3.06-2.93-4.87-4.85-6.07-.65-.4-1.52-.94-1.55-1.16h-1.5v3.75h1.5V33.23l.6.37c1.82,1.13,4.31,2.68,4.31,5.21,0,.41-.45.74-1,.74h-8.58V23.18c1.52,2.15,4.16,4.37,7.84,7.07l1.37,1c4.85,3.54,5.6,4.09,5.6,8.57,0,1.61-.21,2.49-.7,2.85S339,43,337.35,43H306.53c-1.62,0-2.69,0-3.19-.36s-.7-1.24-.7-2.85c0-4.49.75-5,5.61-8.58l1.36-1c3.68-2.71,6.33-4.92,7.85-7.08V39.57h-8.59a1.23,1.23,0,0,1-.72-.22.64.64,0,0,1-.29-.51c0-2.54,2.5-4.09,4.33-5.22.2-.13.41-.25.58-.37v2.11h1.5V31.6h-1.5c0,.22-.9.76-1.54,1.16-1.93,1.19-4.85,3-4.86,6.07a1.61,1.61,0,0,0,.73,1.3,3,3,0,0,0,1.76.54H319V19.05h-1.5c-.07,3.32-3.18,6.23-8.9,10.42l-1.35,1c-4.9,3.57-6.06,4.41-6.06,9.37,0,2,.31,3,1.14,3.64s2.31.69,4.23.69h30.82c1.92,0,3.3,0,4.24-.69s1.14-1.63,1.14-3.64C342.73,34.86,341.57,34,336.67,30.45Z"/><rect class="cls-1" x="275.86" y="46.73" width="91.95" height="1.11"/><rect class="cls-1" x="275.86" y="50.44" width="91.95" height="1.11"/><rect class="cls-1" x="275.86" y="54.15" width="91.95" height="1.11"/><path class="cls-1" d="M367.8,57.86H275.85V59H367.8Z"/><rect class="cls-1" x="367.8" width="91.95" height="1.11"/><rect class="cls-1" x="367.8" y="3.71" width="91.95" height="1.11"/><rect class="cls-1" x="367.8" y="11.13" width="91.95" height="1.11"/><rect class="cls-1" x="367.8" y="7.42" width="91.95" height="1.11"/><path class="cls-1" d="M440.6,30.1a.06.06,0,0,1,0,0,15.59,15.59,0,0,1,2.88-2.28c3.41-2.43,8.09-5.75,8.09-8.81v-.56H447c-2.36,0-3.21,1.22-3.21,2.37h1.49a1.17,1.17,0,0,1,.43-.95A2.2,2.2,0,0,1,447,19.6h3c-.58,2.48-4.73,5.44-7.55,7.44-.75.53-1.36,1-1.84,1.34V17.24a1.1,1.1,0,0,1,.5-.89,2.11,2.11,0,0,1,1.25-.39h17.46V14.85H442.35c-1.79,0-3.24,1.07-3.24,2.39V30.11h1.5Z"/><path class="cls-1" d="M459.76,43h-15.3c-1.61,0-2.69,0-3.18-.37s-.7-1.24-.7-2.85c0-4.48.75-5,5.61-8.57l1.36-1c3.68-2.7,6.33-4.92,7.85-7.08V39.56H446.8a1.21,1.21,0,0,1-.72-.22.64.64,0,0,1-.28-.51c0-2.54,2.49-4.08,4.32-5.22l.59-.37v2.12h1.5V31.6h-1.5c0,.21-.91.75-1.55,1.15-1.93,1.2-4.85,3-4.85,6.07a1.64,1.64,0,0,0,.71,1.3,3,3,0,0,0,1.77.55h10.1V19.05h-1.5c-.08,3.32-3.18,6.23-8.9,10.42l-1.35,1c-4.9,3.57-6.06,4.41-6.06,9.37,0,2,.31,3,1.14,3.64s2.31.69,4.24.69h15.29V43Z"/><path class="cls-1" d="M388.26,17.23a2.12,2.12,0,0,0-.93-1.68,3.86,3.86,0,0,0-2.31-.71H367.8V16H385a2.13,2.13,0,0,1,1.25.38,1.14,1.14,0,0,1,.51.89V28.38c-.49-.37-1.1-.81-1.83-1.33-2.83-2-7-5-7.57-7.44h3a2.23,2.23,0,0,1,1.29.3,1.18,1.18,0,0,1,.43.95h1.49a2.09,2.09,0,0,0-.86-1.73,3.9,3.9,0,0,0-2.35-.64h-4.53v.56c0,3.06,4.68,6.38,8.1,8.81a16.2,16.2,0,0,1,2.88,2.28v0h1.49V17.23Z"/><path class="cls-1" d="M382.21,30.45l-1.35-1c-5.71-4.2-8.83-7.1-8.9-10.42h-1.5l0,21.63h10.08a3,3,0,0,0,1.77-.55,1.61,1.61,0,0,0,.72-1.29c0-3.06-2.92-4.87-4.86-6.07-.63-.4-1.51-.94-1.55-1.16h-1.49v3.75h1.49V33.23c.19.12,4.93,3.05,4.92,5.58,0,.41-.45.74-1,.74H372V23.18c1.53,2.15,4.17,4.37,7.85,7.07l1.36,1c4.86,3.54,5.61,4.09,5.61,8.57,0,1.61-.22,2.49-.7,2.85s-1.56.37-3.18.37h-15.1v1.12H382.9c1.92,0,3.31,0,4.24-.69s1.14-1.63,1.14-3.64C388.27,34.86,387.11,34,382.21,30.45Z"/><path class="cls-1" d="M394.6,30.14a16.56,16.56,0,0,1,2.87-2.28c3.42-2.43,8.1-5.75,8.1-8.81v-.56H401c-2.36,0-3.21,1.22-3.21,2.37h1.49a1.17,1.17,0,0,1,.43-.95A2.23,2.23,0,0,1,401,19.6h3c-.57,2.48-4.74,5.44-7.57,7.44-.74.53-1.35,1-1.84,1.34V17.24a1.09,1.09,0,0,1,.51-.89,2.07,2.07,0,0,1,1.25-.39h35.07a2.1,2.1,0,0,1,1.25.38,1.09,1.09,0,0,1,.49.89V28.38c-.48-.37-1.09-.81-1.84-1.33-2.82-2-7-5-7.56-7.44h3a2.23,2.23,0,0,1,1.29.3,1.18,1.18,0,0,1,.43.95h1.49a2.1,2.1,0,0,0-.87-1.73,3.87,3.87,0,0,0-2.34-.64H422.2v.56c0,3.06,4.68,6.38,8.1,8.81,1.22.86,2.86,2.26,2.86,2.24h1.5V17.24a2.16,2.16,0,0,0-.94-1.69,3.87,3.87,0,0,0-2.3-.7H396.35c-1.79,0-3.24,1.07-3.24,2.39V30.11Z"/><path class="cls-1" d="M428.63,30.45l-1.36-1c-5.71-4.2-8.81-7.1-8.9-10.42h-1.49l0,21.07v.56H427a3,3,0,0,0,1.77-.55,1.62,1.62,0,0,0,.73-1.29c0-3.06-2.94-4.87-4.86-6.07-.64-.4-1.51-.94-1.55-1.16h-1.49v3.75h1.49V33.23l.6.37c1.82,1.13,4.31,2.68,4.31,5.21,0,.41-.45.74-1,.74h-8.58V23.18c1.52,2.15,4.17,4.37,7.85,7.07l1.36,1c4.86,3.54,5.6,4.09,5.6,8.57,0,1.61-.21,2.49-.7,2.85s-1.57.37-3.18.37H398.48c-1.62,0-2.69,0-3.19-.36s-.7-1.24-.7-2.85c0-4.49.75-5,5.62-8.58l1.35-1c3.68-2.71,6.33-4.92,7.85-7.08V39.57h-8.59a1.23,1.23,0,0,1-.72-.22.67.67,0,0,1-.29-.51c0-2.54,2.5-4.09,4.33-5.22l.59-.37v2.11h1.49V31.6h-1.49c0,.22-.91.76-1.54,1.16-1.94,1.19-4.86,3-4.87,6.07a1.61,1.61,0,0,0,.73,1.3,3,3,0,0,0,1.76.54h10.1V19.05h-1.5c-.07,3.32-3.18,6.23-8.9,10.42l-1.35,1c-4.89,3.57-6.06,4.41-6.06,9.37,0,2,.32,3,1.14,3.64s2.32.69,4.23.69h30.82c1.92,0,3.3,0,4.24-.69s1.14-1.63,1.14-3.64C434.68,34.86,433.52,34,428.63,30.45Z"/><rect class="cls-1" x="367.8" y="46.73" width="91.95" height="1.11"/><rect class="cls-1" x="367.8" y="50.44" width="91.95" height="1.11"/><rect class="cls-1" x="367.8" y="54.15" width="91.95" height="1.11"/><path class="cls-1" d="M459.75,57.86H367.8V59h91.95Z"/><rect class="cls-1" x="459.75" width="91.95" height="1.11"/><rect class="cls-1" x="459.75" y="3.71" width="91.95" height="1.11"/><rect class="cls-1" x="459.75" y="11.13" width="91.95" height="1.11"/><rect class="cls-1" x="459.75" y="7.42" width="91.95" height="1.11"/><path class="cls-1" d="M532.55,30.1a.06.06,0,0,1,0,0,15.59,15.59,0,0,1,2.88-2.28c3.42-2.43,8.09-5.75,8.09-8.81v-.56H539c-2.37,0-3.22,1.22-3.22,2.37h1.5a1.14,1.14,0,0,1,.43-.95A2.2,2.2,0,0,1,539,19.6h3c-.58,2.48-4.74,5.44-7.56,7.44-.75.53-1.35,1-1.84,1.34V17.24a1.1,1.1,0,0,1,.5-.89,2.12,2.12,0,0,1,1.26-.39h17.45V14.85H534.31c-1.8,0-3.24,1.07-3.24,2.39V30.11h1.49Z"/><path class="cls-1" d="M551.71,43H536.42c-1.62,0-2.69,0-3.19-.37s-.7-1.24-.7-2.85c0-4.48.75-5,5.61-8.57l1.36-1c3.68-2.7,6.33-4.92,7.85-7.08V39.56h-8.59a1.21,1.21,0,0,1-.72-.22.64.64,0,0,1-.28-.51c0-2.54,2.5-4.08,4.33-5.22.2-.13.41-.25.58-.37v2.12h1.5V31.6h-1.5c0,.21-.91.75-1.55,1.15-1.93,1.2-4.85,3-4.85,6.07a1.62,1.62,0,0,0,.72,1.3,3,3,0,0,0,1.76.55h10.1V19.05h-1.5c-.08,3.32-3.18,6.23-8.9,10.42l-1.35,1C532.2,34,531,34.86,531,39.82c0,2,.32,3,1.14,3.64s2.31.69,4.24.69H551.7V43Z"/><path class="cls-1" d="M480.21,17.23a2.12,2.12,0,0,0-.93-1.68,3.86,3.86,0,0,0-2.31-.71H459.75V16H477a2.18,2.18,0,0,1,1.26.38,1.16,1.16,0,0,1,.5.89V28.38c-.49-.37-1.09-.81-1.83-1.33-2.82-2-7-5-7.57-7.44h3a2.23,2.23,0,0,1,1.29.3,1.15,1.15,0,0,1,.43.95h1.5a2.1,2.1,0,0,0-.87-1.73,3.9,3.9,0,0,0-2.35-.64h-4.53v.56c0,3.06,4.68,6.38,8.1,8.81a14.93,14.93,0,0,1,2.87,2.28v0h1.49V17.23Z"/><path class="cls-1" d="M474.16,30.45l-1.35-1c-5.71-4.2-8.83-7.1-8.9-10.42h-1.5l0,21.63h10.08a3,3,0,0,0,1.77-.55,1.61,1.61,0,0,0,.72-1.29c0-3.06-2.92-4.87-4.85-6.07-.64-.4-1.52-.94-1.55-1.16h-1.5v3.75h1.5V33.23c.18.12,4.91,3.05,4.91,5.58,0,.41-.45.74-1,.74h-8.57V23.18c1.51,2.15,4.16,4.37,7.84,7.07l1.37,1c4.85,3.54,5.6,4.09,5.6,8.57,0,1.61-.22,2.49-.7,2.85s-1.56.37-3.18.37h-15.1v1.12h15.09c1.92,0,3.31,0,4.24-.69s1.14-1.63,1.14-3.64C480.21,34.86,479.06,34,474.16,30.45Z"/><path class="cls-1" d="M486.56,30.14a16.16,16.16,0,0,1,2.87-2.28c3.42-2.43,8.1-5.75,8.1-8.81v-.56H493c-2.36,0-3.21,1.22-3.21,2.37h1.49a1.17,1.17,0,0,1,.43-.95A2.23,2.23,0,0,1,493,19.6h3c-.57,2.48-4.73,5.44-7.56,7.44-.75.53-1.36,1-1.84,1.34V17.24a1.08,1.08,0,0,1,.5-.89,2.11,2.11,0,0,1,1.25-.39h35.07a2.08,2.08,0,0,1,1.25.38,1.11,1.11,0,0,1,.5.89V28.38c-.49-.37-1.1-.81-1.84-1.33-2.82-2-7-5-7.57-7.44h3a2.23,2.23,0,0,1,1.29.3,1.18,1.18,0,0,1,.43.95h1.49a2.09,2.09,0,0,0-.86-1.73,3.9,3.9,0,0,0-2.35-.64h-4.53v.56c0,3.06,4.68,6.38,8.1,8.81,1.22.86,2.87,2.26,2.87,2.24h1.49V17.24a2.18,2.18,0,0,0-.93-1.69,3.93,3.93,0,0,0-2.31-.7H488.31c-1.79,0-3.24,1.07-3.24,2.39V30.11Z"/><path class="cls-1" d="M520.58,30.45l-1.36-1c-5.71-4.2-8.81-7.1-8.9-10.42h-1.49l0,21.07v.56h10.07a3,3,0,0,0,1.76-.55,1.62,1.62,0,0,0,.73-1.29c0-3.06-2.93-4.87-4.86-6.07-.64-.4-1.51-.94-1.55-1.16h-1.49v3.75H515V33.23l.6.37c1.82,1.13,4.31,2.68,4.31,5.21,0,.41-.44.74-1,.74h-8.59V23.18c1.53,2.15,4.17,4.37,7.85,7.07l1.36,1c4.86,3.54,5.61,4.09,5.61,8.57,0,1.61-.22,2.49-.71,2.85s-1.56.37-3.18.37H490.43c-1.61,0-2.69,0-3.18-.36s-.7-1.24-.7-2.85c0-4.49.74-5,5.61-8.58l1.35-1c3.68-2.71,6.34-4.92,7.86-7.08V39.57h-8.59a1.19,1.19,0,0,1-.72-.22.64.64,0,0,1-.29-.51c0-2.54,2.49-4.09,4.32-5.22l.59-.37v2.11h1.49V31.6h-1.49c0,.22-.91.76-1.54,1.16-1.93,1.19-4.86,3-4.87,6.07a1.61,1.61,0,0,0,.73,1.3,3,3,0,0,0,1.77.54h10.09V19.05h-1.49c-.08,3.32-3.19,6.23-8.9,10.42l-1.36,1c-4.89,3.57-6.06,4.41-6.06,9.37,0,2,.32,3,1.14,3.64s2.32.69,4.23.69h30.82c1.92,0,3.31,0,4.24-.69s1.14-1.63,1.14-3.64C526.63,34.86,525.47,34,520.58,30.45Z"/><rect class="cls-1" x="459.75" y="46.73" width="91.95" height="1.11"/><rect class="cls-1" x="459.75" y="50.44" width="91.95" height="1.11"/><rect class="cls-1" x="459.75" y="54.15" width="91.95" height="1.11"/><path class="cls-1" d="M551.7,57.86h-92V59h92Z"/><rect class="cls-1" x="551.7" width="91.95" height="1.11"/><rect class="cls-1" x="551.7" y="3.71" width="91.95" height="1.11"/><rect class="cls-1" x="551.7" y="11.13" width="91.95" height="1.11"/><rect class="cls-1" x="551.7" y="7.42" width="91.95" height="1.11"/><path class="cls-1" d="M624.49,30.1a.06.06,0,0,1,0,0,16.36,16.36,0,0,1,2.88-2.28c3.42-2.43,8.1-5.75,8.1-8.81v-.56h-4.53c-2.36,0-3.21,1.22-3.21,2.37h1.49a1.17,1.17,0,0,1,.43-.95,2.2,2.2,0,0,1,1.29-.31h3c-.58,2.48-4.74,5.44-7.56,7.44-.74.53-1.35,1-1.84,1.34V17.24a1.09,1.09,0,0,1,.51-.89,2.07,2.07,0,0,1,1.25-.39H643.7V14.85H626.25c-1.79,0-3.24,1.07-3.24,2.39V30.11h1.49Z"/><path class="cls-1" d="M643.67,43h-15.3c-1.62,0-2.69,0-3.19-.37s-.7-1.24-.7-2.85c0-4.48.75-5,5.62-8.57l1.35-1c3.68-2.7,6.33-4.92,7.86-7.08V39.56h-8.6a1.21,1.21,0,0,1-.72-.22.67.67,0,0,1-.28-.51c0-2.54,2.5-4.08,4.33-5.22l.59-.37v2.12h1.49V31.6h-1.49c0,.21-.92.75-1.55,1.15-1.94,1.2-4.86,3-4.86,6.07a1.62,1.62,0,0,0,.72,1.3,3,3,0,0,0,1.76.55h10.1V19.05H639.3c-.09,3.32-3.19,6.23-8.9,10.42l-1.36,1C624.15,34,623,34.86,623,39.82c0,2,.32,3,1.14,3.64s2.32.69,4.24.69h15.3V43Z"/><path class="cls-1" d="M572.17,17.23a2.13,2.13,0,0,0-.94-1.68,3.83,3.83,0,0,0-2.3-.71H551.7V16h17.23a2.18,2.18,0,0,1,1.25.38,1.13,1.13,0,0,1,.5.89V28.38c-.48-.37-1.09-.81-1.83-1.33-2.83-2-7-5-7.56-7.44h3a2.23,2.23,0,0,1,1.29.3,1.17,1.17,0,0,1,.42.95h1.5a2.1,2.1,0,0,0-.87-1.73,3.87,3.87,0,0,0-2.34-.64h-4.53v.56c0,3.06,4.68,6.38,8.09,8.81a15.45,15.45,0,0,1,2.88,2.28v0h1.49V17.23Z"/><path class="cls-1" d="M566.11,30.45l-1.35-1c-5.71-4.2-8.82-7.1-8.9-10.42h-1.49l0,21.63h10.07a3,3,0,0,0,1.78-.55,1.63,1.63,0,0,0,.72-1.29c0-3.06-2.93-4.87-4.86-6.07-.64-.4-1.51-.94-1.55-1.16h-1.5v3.75h1.5V33.23c.19.12,4.92,3.05,4.91,5.58,0,.41-.45.74-1,.74h-8.57V23.18c1.52,2.15,4.16,4.37,7.84,7.07l1.37,1c4.85,3.54,5.6,4.09,5.6,8.57,0,1.61-.21,2.49-.7,2.85s-1.56.37-3.17.37H551.71v1.12h15.1c1.91,0,3.3,0,4.24-.69s1.14-1.63,1.14-3.64C572.17,34.86,571,34,566.11,30.45Z"/><path class="cls-1" d="M578.5,30.14a16,16,0,0,1,2.88-2.28c3.41-2.43,8.09-5.75,8.09-8.81v-.56h-4.53c-2.36,0-3.21,1.22-3.21,2.37h1.49a1.17,1.17,0,0,1,.43-.95,2.23,2.23,0,0,1,1.29-.31h3c-.57,2.48-4.73,5.44-7.56,7.44-.75.53-1.36,1-1.84,1.34V17.24a1.1,1.1,0,0,1,.5-.89,2.11,2.11,0,0,1,1.25-.39h35.07a2.06,2.06,0,0,1,1.25.38,1.11,1.11,0,0,1,.5.89V28.38c-.49-.37-1.09-.81-1.84-1.33-2.82-2-7-5-7.57-7.44h3a2.23,2.23,0,0,1,1.29.3,1.15,1.15,0,0,1,.43.95h1.5a2.1,2.1,0,0,0-.87-1.73,3.9,3.9,0,0,0-2.35-.64H606.1v.56c0,3.06,4.68,6.38,8.1,8.81,1.23.86,2.87,2.26,2.87,2.24h1.49V17.24a2.15,2.15,0,0,0-.93-1.69,3.93,3.93,0,0,0-2.31-.7H580.25c-1.79,0-3.24,1.07-3.24,2.39V30.11Z"/><path class="cls-1" d="M612.52,30.45l-1.35-1c-5.72-4.2-8.82-7.1-8.9-10.42h-1.5l0,21.07v.56h10.07a2.93,2.93,0,0,0,1.76-.55,1.62,1.62,0,0,0,.73-1.29c0-3.06-2.93-4.87-4.85-6.07-.65-.4-1.52-.94-1.55-1.16h-1.5v3.75H607V33.23l.59.37c1.82,1.13,4.32,2.68,4.32,5.21,0,.41-.45.74-1,.74h-8.58V23.18c1.52,2.15,4.16,4.37,7.84,7.07l1.36,1c4.86,3.54,5.61,4.09,5.61,8.57,0,1.61-.22,2.49-.7,2.85s-1.57.37-3.19.37H582.37c-1.61,0-2.69,0-3.18-.36s-.7-1.24-.7-2.85c0-4.49.75-5,5.61-8.58l1.36-1c3.68-2.71,6.33-4.92,7.85-7.08V39.57h-8.59a1.23,1.23,0,0,1-.72-.22.64.64,0,0,1-.29-.51c0-2.54,2.49-4.09,4.32-5.22l.59-.37v2.11h1.5V31.6h-1.5c0,.22-.9.76-1.55,1.16-1.93,1.19-4.85,3-4.86,6.07a1.62,1.62,0,0,0,.72,1.3,3,3,0,0,0,1.77.54h10.1V19.05h-1.5c-.07,3.32-3.18,6.23-8.9,10.42l-1.35,1C578.15,34,577,34.86,577,39.82c0,2,.31,3,1.14,3.64s2.31.69,4.23.69h30.81c1.93,0,3.31,0,4.24-.69s1.14-1.63,1.14-3.64C618.58,34.86,617.41,34,612.52,30.45Z"/><rect class="cls-1" x="551.7" y="46.73" width="91.95" height="1.11"/><rect class="cls-1" x="551.7" y="50.44" width="91.95" height="1.11"/><rect class="cls-1" x="551.7" y="54.15" width="91.95" height="1.11"/><path class="cls-1" d="M643.65,57.86H551.7V59h91.95Z"/><rect class="cls-1" x="643.65" width="91.95" height="1.11"/><rect class="cls-1" x="643.65" y="3.71" width="91.95" height="1.11"/><rect class="cls-1" x="643.65" y="11.13" width="91.95" height="1.11"/><rect class="cls-1" x="643.65" y="7.42" width="91.95" height="1.11"/><path class="cls-1" d="M716.45,30.1a.06.06,0,0,1,0,0,15.77,15.77,0,0,1,2.87-2.28c3.42-2.43,8.1-5.75,8.1-8.81v-.56h-4.53c-2.36,0-3.21,1.22-3.21,2.37h1.49a1.17,1.17,0,0,1,.43-.95,2.2,2.2,0,0,1,1.29-.31h3c-.58,2.48-4.73,5.44-7.55,7.44-.75.53-1.36,1-1.84,1.34V17.24a1.08,1.08,0,0,1,.5-.89A2.11,2.11,0,0,1,718.2,16h17.46V14.85H718.2c-1.79,0-3.24,1.07-3.24,2.39V30.11h1.5Z"/><path class="cls-1" d="M735.61,43h-15.3c-1.61,0-2.69,0-3.18-.37s-.7-1.24-.7-2.85c0-4.48.74-5,5.61-8.57l1.35-1c3.68-2.7,6.34-4.92,7.86-7.08v16.4h-8.59a1.19,1.19,0,0,1-.72-.22.65.65,0,0,1-.28-.51c0-2.54,2.49-4.09,4.32-5.22l.59-.37v2.11h1.49V31.6h-1.49c0,.22-.92.76-1.55,1.16-1.93,1.19-4.86,3-4.86,6.07a1.62,1.62,0,0,0,.72,1.3,3,3,0,0,0,1.77.54l10.09,0V19.06h-1.49c-.09,3.32-3.19,6.22-8.9,10.42l-1.36,1c-4.89,3.57-6.06,4.41-6.06,9.37,0,2,.32,3,1.14,3.63s2.32.69,4.24.69h15.3Z"/><path class="cls-1" d="M664.11,17.23a2.15,2.15,0,0,0-.93-1.68,3.86,3.86,0,0,0-2.31-.71H643.65V16h17.22a2.15,2.15,0,0,1,1.25.38,1.13,1.13,0,0,1,.5.89V28.38c-.48-.37-1.09-.81-1.83-1.33-2.83-2-7-5-7.56-7.44h3a2.23,2.23,0,0,1,1.29.3,1.18,1.18,0,0,1,.43.95h1.49a2.1,2.1,0,0,0-.87-1.73,3.87,3.87,0,0,0-2.34-.64h-4.53v.56c0,3.06,4.68,6.38,8.1,8.81a15.63,15.63,0,0,1,2.87,2.28v0h1.5V17.23Z"/><path class="cls-1" d="M658.07,30.45l-1.36-1c-5.7-4.2-8.82-7.1-8.9-10.42h-1.49l0,21.63h10.07a3,3,0,0,0,1.78-.55,1.61,1.61,0,0,0,.72-1.29c0-3.06-2.93-4.87-4.86-6.07-.63-.4-1.51-.94-1.55-1.16H651v3.75h1.49V33.23c.19.12,4.91,3.05,4.91,5.58,0,.41-.44.74-1,.74h-8.57V23.18c1.52,2.15,4.17,4.37,7.85,7.07l1.36,1c4.86,3.54,5.6,4.09,5.6,8.57,0,1.61-.21,2.49-.7,2.85s-1.56.37-3.17.37h-15.1v1.12h15.09c1.91,0,3.3,0,4.24-.69s1.14-1.63,1.14-3.64C664.12,34.86,663,34,658.07,30.45Z"/><path class="cls-1" d="M670.45,30.14a16,16,0,0,1,2.88-2.28c3.42-2.43,8.09-5.75,8.09-8.81v-.56h-4.53c-2.36,0-3.21,1.22-3.21,2.37h1.5a1.14,1.14,0,0,1,.43-.95,2.21,2.21,0,0,1,1.28-.31h3c-.57,2.48-4.74,5.44-7.57,7.44-.75.53-1.35,1-1.84,1.34V17.24a1.09,1.09,0,0,1,.51-.89,2.07,2.07,0,0,1,1.25-.39h35.06a2.11,2.11,0,0,1,1.26.38,1.12,1.12,0,0,1,.49.89V28.38c-.48-.37-1.09-.81-1.84-1.33-2.82-2-7-5-7.56-7.44h3a2.23,2.23,0,0,1,1.29.3,1.18,1.18,0,0,1,.43.95h1.49a2.1,2.1,0,0,0-.87-1.73,3.87,3.87,0,0,0-2.34-.64h-4.53v.56c0,3.06,4.68,6.38,8.09,8.81,1.23.86,2.87,2.26,2.87,2.24h1.5V17.24a2.16,2.16,0,0,0-.94-1.69,3.9,3.9,0,0,0-2.3-.7H672.21c-1.8,0-3.24,1.07-3.24,2.39V30.11Z"/><path class="cls-1" d="M704.47,30.45l-1.35-1c-5.72-4.2-8.82-7.1-8.9-10.42h-1.5l0,21.07v.56h10.07a3,3,0,0,0,1.77-.55,1.63,1.63,0,0,0,.72-1.29c0-3.06-2.93-4.87-4.85-6.07-.65-.4-1.51-.94-1.55-1.16h-1.5v3.75h1.5V33.23l.6.37c1.82,1.13,4.31,2.68,4.31,5.21,0,.41-.45.74-1,.74h-8.58V23.18c1.52,2.15,4.16,4.37,7.84,7.07l1.37,1c4.85,3.54,5.6,4.09,5.6,8.57,0,1.61-.21,2.49-.7,2.85s-1.57.37-3.18.37H674.33c-1.62,0-2.69,0-3.19-.36s-.7-1.24-.7-2.85c0-4.49.75-5,5.61-8.58l1.36-1c3.68-2.71,6.33-4.92,7.85-7.08V39.57h-8.59a1.23,1.23,0,0,1-.72-.22.64.64,0,0,1-.29-.51c0-2.54,2.5-4.09,4.33-5.22.2-.13.41-.25.58-.37v2.11h1.5V31.6h-1.5c0,.22-.9.76-1.55,1.16-1.93,1.19-4.85,3-4.86,6.07a1.61,1.61,0,0,0,.73,1.3,3,3,0,0,0,1.76.54h10.1V19.05h-1.5c-.07,3.32-3.18,6.23-8.9,10.42l-1.35,1c-4.89,3.57-6.06,4.41-6.06,9.37,0,2,.32,3,1.14,3.64s2.31.69,4.23.69h30.82c1.92,0,3.3,0,4.24-.69s1.14-1.63,1.14-3.64C710.52,34.86,709.37,34,704.47,30.45Z"/><rect class="cls-1" x="643.65" y="46.73" width="91.95" height="1.11"/><rect class="cls-1" x="643.65" y="50.44" width="91.95" height="1.11"/><rect class="cls-1" x="643.65" y="54.15" width="91.95" height="1.11"/><path class="cls-1" d="M735.6,57.86h-92V59h92Z"/><rect class="cls-1" x="735.6" width="91.95" height="1.11"/><rect class="cls-1" x="735.6" y="3.71" width="91.95" height="1.11"/><rect class="cls-1" x="735.6" y="11.13" width="91.95" height="1.11"/><rect class="cls-1" x="735.6" y="7.42" width="91.95" height="1.11"/><path class="cls-1" d="M808.4,30.1a.06.06,0,0,1,0,0,15.59,15.59,0,0,1,2.88-2.28c3.41-2.43,8.09-5.75,8.09-8.81v-.56h-4.53c-2.36,0-3.21,1.22-3.21,2.37h1.49a1.17,1.17,0,0,1,.43-.95,2.2,2.2,0,0,1,1.29-.31h3c-.58,2.48-4.73,5.44-7.55,7.44-.75.53-1.36,1-1.84,1.34V17.24a1.1,1.1,0,0,1,.5-.89,2.11,2.11,0,0,1,1.25-.39h17.46V14.85H810.15c-1.79,0-3.24,1.07-3.24,2.39l0,12.86Z"/><path class="cls-1" d="M827.56,43h-15.3c-1.61,0-2.69,0-3.18-.37s-.7-1.24-.7-2.85c0-4.48.75-5,5.61-8.57l1.36-1c3.68-2.7,6.33-4.92,7.85-7.08V39.56H814.6a1.21,1.21,0,0,1-.72-.22.64.64,0,0,1-.28-.51c0-2.54,2.49-4.08,4.32-5.22l.59-.37v2.12H820V31.6h-1.5c0,.21-.91.75-1.55,1.15-1.93,1.2-4.85,3-4.85,6.07a1.64,1.64,0,0,0,.71,1.3,3,3,0,0,0,1.77.55h10.1V19.05h-1.5c-.08,3.32-3.18,6.23-8.9,10.42l-1.35,1c-4.9,3.57-6.06,4.41-6.06,9.37,0,2,.31,3,1.14,3.64s2.31.69,4.24.69h15.29V43Z"/><path class="cls-1" d="M756.06,17.23a2.12,2.12,0,0,0-.93-1.68,3.86,3.86,0,0,0-2.31-.71H735.6V16h17.22a2.13,2.13,0,0,1,1.25.38,1.14,1.14,0,0,1,.51.89V28.38c-.49-.37-1.1-.81-1.83-1.33-2.82-2-7-5-7.57-7.44h3a2.23,2.23,0,0,1,1.29.3,1.18,1.18,0,0,1,.43.95h1.49a2.09,2.09,0,0,0-.86-1.73,3.9,3.9,0,0,0-2.35-.64h-4.53v.56c0,3.06,4.68,6.38,8.1,8.81a15.82,15.82,0,0,1,2.88,2.28v0h1.49V17.23Z"/><path class="cls-1" d="M750,30.45l-1.35-1c-5.71-4.2-8.83-7.1-8.9-10.42h-1.5l0,21.63h10.08a3,3,0,0,0,1.77-.55,1.61,1.61,0,0,0,.72-1.29c0-3.06-2.92-4.87-4.86-6.07-.63-.4-1.51-.94-1.55-1.16H743v3.75h1.49V33.23c.19.12,4.93,3.05,4.92,5.58,0,.41-.45.74-1,.74h-8.58V23.18c1.53,2.15,4.17,4.37,7.85,7.07l1.36,1c4.86,3.54,5.61,4.09,5.61,8.57,0,1.61-.22,2.49-.7,2.85s-1.56.37-3.18.37h-15.1v1.12H750.7c1.92,0,3.31,0,4.24-.69s1.14-1.63,1.14-3.64C756.07,34.86,754.9,34,750,30.45Z"/><path class="cls-1" d="M762.4,30.14a16.36,16.36,0,0,1,2.88-2.28c3.42-2.43,8.1-5.75,8.1-8.81v-.56h-4.53c-2.37,0-3.22,1.22-3.22,2.37h1.5a1.14,1.14,0,0,1,.43-.95,2.23,2.23,0,0,1,1.29-.31h3c-.57,2.48-4.74,5.44-7.57,7.44-.74.53-1.35,1-1.84,1.34V17.24a1.09,1.09,0,0,1,.51-.89,2.07,2.07,0,0,1,1.25-.39h35.07a2.1,2.1,0,0,1,1.25.38,1.09,1.09,0,0,1,.49.89V28.38c-.48-.37-1.09-.81-1.84-1.33-2.82-2-7-5-7.56-7.44h3a2.23,2.23,0,0,1,1.29.3,1.18,1.18,0,0,1,.43.95h1.49a2.1,2.1,0,0,0-.87-1.73,3.87,3.87,0,0,0-2.34-.64H790v.56c0,3.06,4.68,6.38,8.1,8.81,1.22.86,2.86,2.26,2.86,2.24h1.5V17.24a2.16,2.16,0,0,0-.94-1.69,3.87,3.87,0,0,0-2.3-.7H764.16c-1.79,0-3.24,1.07-3.24,2.39V30.11Z"/><path class="cls-1" d="M796.43,30.45l-1.36-1c-5.71-4.2-8.81-7.1-8.9-10.42h-1.49l0,21.07v.56h10.06a3,3,0,0,0,1.77-.55,1.62,1.62,0,0,0,.73-1.29c0-3.06-2.94-4.87-4.86-6.07-.64-.4-1.51-.94-1.55-1.16h-1.49v3.75h1.49V33.23l.6.37c1.82,1.13,4.31,2.68,4.31,5.21,0,.41-.45.74-1,.74h-8.58V23.18c1.52,2.15,4.17,4.37,7.85,7.07l1.36,1c4.86,3.54,5.6,4.09,5.6,8.57,0,1.61-.21,2.49-.7,2.85s-1.57.37-3.18.37H766.28c-1.62,0-2.69,0-3.19-.36s-.7-1.24-.7-2.85c0-4.49.75-5,5.62-8.58l1.35-1c3.68-2.71,6.33-4.92,7.86-7.08V39.57h-8.6a1.23,1.23,0,0,1-.72-.22.67.67,0,0,1-.29-.51c0-2.54,2.5-4.09,4.33-5.22l.59-.37v2.11H774V31.6h-1.49c0,.22-.91.76-1.55,1.16-1.94,1.19-4.86,3-4.87,6.07a1.61,1.61,0,0,0,.73,1.3,3,3,0,0,0,1.76.54h10.1V19.05h-1.49c-.08,3.32-3.19,6.23-8.9,10.42l-1.36,1c-4.89,3.57-6.06,4.41-6.06,9.37,0,2,.32,3,1.14,3.64s2.32.69,4.23.69h30.82c1.92,0,3.31,0,4.24-.69s1.14-1.63,1.14-3.64C802.48,34.86,801.32,34,796.43,30.45Z"/><rect class="cls-1" x="735.6" y="46.73" width="91.95" height="1.11"/><rect class="cls-1" x="735.6" y="50.44" width="91.95" height="1.11"/><rect class="cls-1" x="735.6" y="54.15" width="91.95" height="1.11"/><path class="cls-1" d="M827.55,57.86H735.6V59h91.95Z"/><rect class="cls-1" x="827.55" width="91.95" height="1.11"/><rect class="cls-1" x="827.55" y="3.71" width="91.95" height="1.11"/><rect class="cls-1" x="827.55" y="11.13" width="91.95" height="1.11"/><rect class="cls-1" x="827.55" y="7.42" width="91.95" height="1.11"/><path class="cls-1" d="M900.34,30.1a.06.06,0,0,1,0,0,16.16,16.16,0,0,1,2.87-2.28c3.42-2.43,8.1-5.75,8.1-8.81v-.56h-4.53c-2.37,0-3.22,1.22-3.22,2.37h1.5a1.14,1.14,0,0,1,.43-.95,2.2,2.2,0,0,1,1.29-.31h3C909.15,22.08,905,25,902.17,27c-.75.53-1.35,1-1.84,1.34V17.24a1.09,1.09,0,0,1,.51-.89,2.07,2.07,0,0,1,1.25-.39h17.45V14.85H902.09c-1.8,0-3.24,1.07-3.24,2.39V30.11h1.5Z"/><path class="cls-1" d="M919.51,43H904.22c-1.62,0-2.69,0-3.19-.37s-.7-1.24-.7-2.85c0-4.48.75-5,5.61-8.57l1.36-1c3.68-2.7,6.33-4.92,7.85-7.08V39.56h-8.59a1.21,1.21,0,0,1-.72-.22.67.67,0,0,1-.28-.51c0-2.54,2.5-4.08,4.33-5.22.2-.13.41-.25.58-.37v2.12H912V31.6h-1.5c0,.21-.91.75-1.55,1.15-1.93,1.2-4.85,3-4.85,6.07a1.62,1.62,0,0,0,.72,1.3,3,3,0,0,0,1.76.55h10.1V19.05h-1.5c-.08,3.32-3.18,6.23-8.9,10.42l-1.35,1c-4.89,3.57-6.06,4.41-6.06,9.37,0,2,.32,3,1.14,3.64s2.31.69,4.24.69H919.5V43Z"/><path class="cls-1" d="M848,17.23a2.12,2.12,0,0,0-.93-1.68,3.86,3.86,0,0,0-2.31-.71H827.55V16h17.22a2.18,2.18,0,0,1,1.26.38,1.16,1.16,0,0,1,.5.89V28.38c-.49-.37-1.09-.81-1.83-1.33-2.83-2-7-5-7.57-7.44h3a2.23,2.23,0,0,1,1.29.3,1.15,1.15,0,0,1,.43.95h1.5a2.1,2.1,0,0,0-.87-1.73,3.9,3.9,0,0,0-2.35-.64h-4.53v.56c0,3.06,4.68,6.38,8.1,8.81a15.45,15.45,0,0,1,2.88,2.28v0H848V17.23Z"/><path class="cls-1" d="M842,30.45l-1.35-1c-5.71-4.2-8.83-7.1-8.9-10.42h-1.5l0,21.63h10.08a3,3,0,0,0,1.77-.55,1.61,1.61,0,0,0,.72-1.29c0-3.06-2.92-4.87-4.85-6.07-.64-.4-1.52-.94-1.55-1.16h-1.5v3.75h1.5V33.23c.18.12,4.92,3.05,4.91,5.58,0,.41-.45.74-1,.74h-8.57V23.18c1.51,2.15,4.16,4.37,7.84,7.07l1.37,1c4.85,3.54,5.6,4.09,5.6,8.57,0,1.61-.22,2.49-.7,2.85s-1.56.37-3.18.37h-15.1v1.12h15.09c1.92,0,3.31,0,4.24-.69S848,41.83,848,39.82C848,34.86,846.86,34,842,30.45Z"/><path class="cls-1" d="M854.35,30.14a16.16,16.16,0,0,1,2.87-2.28c3.42-2.43,8.1-5.75,8.1-8.81v-.56h-4.53c-2.36,0-3.21,1.22-3.21,2.37h1.49a1.17,1.17,0,0,1,.43-.95,2.23,2.23,0,0,1,1.29-.31h3C863.18,22.08,859,25,856.19,27c-.75.53-1.36,1-1.84,1.34V17.24a1.08,1.08,0,0,1,.5-.89A2.11,2.11,0,0,1,856.1,16h35.07a2.06,2.06,0,0,1,1.25.38,1.11,1.11,0,0,1,.5.89V28.38c-.49-.37-1.1-.81-1.84-1.33-2.82-2-7-5-7.57-7.44h3a2.23,2.23,0,0,1,1.29.3,1.18,1.18,0,0,1,.43.95h1.49a2.09,2.09,0,0,0-.86-1.73,3.9,3.9,0,0,0-2.35-.64H882v.56c0,3.06,4.68,6.38,8.1,8.81,1.22.86,2.87,2.26,2.87,2.24h1.49V17.24a2.18,2.18,0,0,0-.93-1.69,3.93,3.93,0,0,0-2.31-.7H856.1c-1.79,0-3.24,1.07-3.24,2.39V30.11Z"/><path class="cls-1" d="M888.37,30.45l-1.36-1c-5.71-4.2-8.81-7.1-8.9-10.42h-1.49l0,21.07v.56h10.07a3,3,0,0,0,1.76-.55,1.62,1.62,0,0,0,.73-1.29c0-3.06-2.93-4.87-4.86-6.07-.64-.4-1.51-.94-1.55-1.16H881.3v3.75h1.49V33.23l.6.37c1.82,1.13,4.32,2.68,4.32,5.21,0,.41-.45.74-1,.74h-8.59V23.18c1.53,2.15,4.17,4.37,7.85,7.07l1.36,1c4.86,3.54,5.61,4.09,5.61,8.57,0,1.61-.22,2.49-.7,2.85S890.66,43,889,43H858.22c-1.61,0-2.69,0-3.18-.36s-.7-1.24-.7-2.85c0-4.49.74-5,5.61-8.58l1.35-1c3.68-2.71,6.34-4.92,7.86-7.08V39.57h-8.59a1.21,1.21,0,0,1-.72-.22.64.64,0,0,1-.29-.51c0-2.54,2.49-4.09,4.32-5.22l.59-.37v2.11H866V31.6h-1.49c0,.22-.91.76-1.55,1.16-1.93,1.19-4.86,3-4.87,6.07a1.63,1.63,0,0,0,.73,1.3,3,3,0,0,0,1.77.54h10.09V19.05h-1.49c-.08,3.32-3.19,6.23-8.9,10.42l-1.36,1c-4.89,3.57-6.06,4.41-6.06,9.37,0,2,.32,3,1.14,3.64s2.32.69,4.23.69H889c1.93,0,3.31,0,4.24-.69s1.14-1.63,1.14-3.64C894.43,34.86,893.26,34,888.37,30.45Z"/><rect class="cls-1" x="827.55" y="46.73" width="91.95" height="1.11"/><rect class="cls-1" x="827.55" y="50.44" width="91.95" height="1.11"/><rect class="cls-1" x="827.55" y="54.15" width="91.95" height="1.11"/><path class="cls-1" d="M919.5,57.86h-92V59h92Z"/><rect class="cls-1" x="919.5" width="91.95" height="1.11"/><rect class="cls-1" x="919.5" y="3.71" width="91.95" height="1.11"/><rect class="cls-1" x="919.5" y="11.13" width="91.95" height="1.11"/><rect class="cls-1" x="919.5" y="7.42" width="91.95" height="1.11"/><path class="cls-1" d="M992.29,30.1a.06.06,0,0,1,0,0,16.36,16.36,0,0,1,2.88-2.28c3.42-2.43,8.1-5.75,8.1-8.81v-.56h-4.53c-2.36,0-3.21,1.22-3.21,2.37H997a1.17,1.17,0,0,1,.43-.95,2.2,2.2,0,0,1,1.29-.31h3c-.58,2.48-4.74,5.44-7.56,7.44-.74.53-1.35,1-1.84,1.34V17.24a1.09,1.09,0,0,1,.51-.89,2.07,2.07,0,0,1,1.25-.39h17.45V14.85H994.05c-1.79,0-3.24,1.07-3.24,2.39V30.11h1.49Z"/><path class="cls-1" d="M1011.47,43h-15.3c-1.62,0-2.69,0-3.19-.37s-.7-1.24-.7-2.85c0-4.48.75-5,5.62-8.57l1.35-1c3.68-2.7,6.33-4.92,7.86-7.08V39.56h-8.6a1.21,1.21,0,0,1-.72-.22.67.67,0,0,1-.28-.51c0-2.54,2.5-4.08,4.33-5.22l.59-.37v2.12h1.49V31.6h-1.49c0,.21-.92.75-1.55,1.15-1.94,1.2-4.86,3-4.86,6.07a1.62,1.62,0,0,0,.72,1.3,3,3,0,0,0,1.76.55h10.1V19.05h-1.49c-.09,3.32-3.19,6.23-8.9,10.42l-1.36,1c-4.89,3.57-6.06,4.41-6.06,9.37,0,2,.32,3,1.14,3.64s2.32.69,4.24.69h15.3V43Z"/><path class="cls-1" d="M940,17.23a2.13,2.13,0,0,0-.94-1.68,3.83,3.83,0,0,0-2.3-.71H919.5V16h17.22a2.18,2.18,0,0,1,1.25.38,1.13,1.13,0,0,1,.5.89V28.38c-.48-.37-1.09-.81-1.83-1.33-2.83-2-7-5-7.56-7.44h3a2.23,2.23,0,0,1,1.29.3,1.18,1.18,0,0,1,.43.95h1.49a2.1,2.1,0,0,0-.87-1.73,3.87,3.87,0,0,0-2.34-.64h-4.53v.56c0,3.06,4.68,6.38,8.1,8.81a15.63,15.63,0,0,1,2.87,2.28v0H940V17.23Z"/><path class="cls-1" d="M933.92,30.45l-1.36-1c-5.71-4.2-8.82-7.1-8.9-10.42h-1.49l0,21.63h10.06a3,3,0,0,0,1.78-.55,1.63,1.63,0,0,0,.72-1.29c0-3.06-2.93-4.87-4.86-6.07-.64-.4-1.51-.94-1.55-1.16h-1.49v3.75h1.49V33.23c.19.12,4.92,3.05,4.91,5.58,0,.41-.45.74-1,.74h-8.57V23.18c1.52,2.15,4.17,4.37,7.85,7.07l1.36,1c4.85,3.54,5.6,4.09,5.6,8.57,0,1.61-.21,2.49-.7,2.85s-1.56.37-3.17.37h-15.1v1.12H934.6c1.91,0,3.3,0,4.24-.69S940,41.83,940,39.82C940,34.86,938.81,34,933.92,30.45Z"/><path class="cls-1" d="M946.3,30.14a16,16,0,0,1,2.88-2.28c3.41-2.43,8.09-5.75,8.09-8.81v-.56h-4.53c-2.36,0-3.21,1.22-3.21,2.37H951a1.17,1.17,0,0,1,.43-.95,2.23,2.23,0,0,1,1.29-.31h3C955.13,22.08,951,25,948.14,27c-.75.53-1.36,1-1.84,1.34V17.24a1.1,1.1,0,0,1,.5-.89,2.11,2.11,0,0,1,1.25-.39h35.07a2.06,2.06,0,0,1,1.25.38,1.11,1.11,0,0,1,.5.89V28.38c-.49-.37-1.09-.81-1.84-1.33-2.82-2-7-5-7.57-7.44h3a2.23,2.23,0,0,1,1.29.3,1.15,1.15,0,0,1,.43.95h1.5a2.1,2.1,0,0,0-.87-1.73,3.9,3.9,0,0,0-2.35-.64H973.9v.56c0,3.06,4.68,6.38,8.1,8.81,1.23.86,2.87,2.26,2.87,2.24h1.49V17.24a2.15,2.15,0,0,0-.93-1.69,3.93,3.93,0,0,0-2.31-.7H948.05c-1.79,0-3.24,1.07-3.24,2.39V30.11Z"/><path class="cls-1" d="M980.32,30.45l-1.35-1c-5.72-4.2-8.82-7.1-8.9-10.42h-1.5l0,21.07v.56h10.07a2.93,2.93,0,0,0,1.76-.55,1.62,1.62,0,0,0,.73-1.29c0-3.06-2.93-4.87-4.85-6.07-.65-.4-1.52-.94-1.55-1.16h-1.5v3.75h1.5V33.23l.59.37c1.82,1.13,4.32,2.68,4.32,5.21,0,.41-.45.74-1,.74h-8.58V23.18c1.52,2.15,4.16,4.37,7.84,7.07l1.37,1c4.85,3.54,5.6,4.09,5.6,8.57,0,1.61-.22,2.49-.7,2.85S982.61,43,981,43H950.17c-1.61,0-2.69,0-3.18-.36s-.7-1.24-.7-2.85c0-4.49.75-5,5.61-8.58l1.36-1c3.68-2.71,6.33-4.92,7.85-7.08V39.57h-8.59a1.23,1.23,0,0,1-.72-.22.64.64,0,0,1-.29-.51c0-2.54,2.49-4.09,4.32-5.22l.59-.37v2.11h1.5V31.6h-1.5c0,.22-.9.76-1.54,1.16C953,34,950,35.77,950,38.83a1.62,1.62,0,0,0,.72,1.3,3,3,0,0,0,1.77.54H962.6V19.05h-1.49c-.07,3.32-3.18,6.23-8.9,10.42l-1.35,1c-4.9,3.57-6.06,4.41-6.06,9.37,0,2,.31,3,1.13,3.64s2.32.69,4.24.69H981c1.93,0,3.31,0,4.24-.69s1.14-1.63,1.14-3.64C986.37,34.86,985.21,34,980.32,30.45Z"/><rect class="cls-1" x="919.5" y="46.73" width="91.95" height="1.11"/><rect class="cls-1" x="919.5" y="50.44" width="91.95" height="1.11"/><rect class="cls-1" x="919.5" y="54.15" width="91.95" height="1.11"/><path class="cls-1" d="M1011.45,57.86h-92V59h92Z"/><rect class="cls-1" x="1011.45" width="91.95" height="1.11"/><rect class="cls-1" x="1011.45" y="3.71" width="91.95" height="1.11"/><rect class="cls-1" x="1011.45" y="11.13" width="91.95" height="1.11"/><rect class="cls-1" x="1011.45" y="7.42" width="91.95" height="1.11"/><path class="cls-1" d="M1084.25,30.1a.06.06,0,0,1,0,0,15.77,15.77,0,0,1,2.87-2.28c3.42-2.43,8.1-5.75,8.1-8.81v-.56h-4.53c-2.36,0-3.21,1.22-3.21,2.37H1089a1.17,1.17,0,0,1,.43-.95,2.2,2.2,0,0,1,1.29-.31h3c-.58,2.48-4.73,5.44-7.55,7.44-.75.53-1.36,1-1.84,1.34V17.24a1.08,1.08,0,0,1,.5-.89A2.11,2.11,0,0,1,1086,16h17.46V14.85H1086c-1.79,0-3.24,1.07-3.24,2.39V30.11h1.5Z"/><path class="cls-1" d="M1103.41,43h-15.3c-1.61,0-2.69,0-3.18-.37s-.7-1.24-.7-2.85c0-4.48.74-5,5.61-8.57l1.35-1c3.68-2.7,6.34-4.92,7.86-7.08V39.56h-8.59a1.19,1.19,0,0,1-.72-.22.64.64,0,0,1-.28-.51c0-2.54,2.49-4.08,4.32-5.22l.59-.37v2.12h1.49V31.6h-1.49c0,.21-.92.75-1.55,1.15-1.93,1.2-4.86,3-4.86,6.07a1.65,1.65,0,0,0,.72,1.3,3,3,0,0,0,1.77.55h10.09V19.05H1099c-.09,3.32-3.19,6.23-8.9,10.42l-1.36,1c-4.89,3.57-6.06,4.41-6.06,9.37,0,2,.32,3,1.14,3.64s2.32.69,4.24.69h15.3V43Z"/><path class="cls-1" d="M1031.91,17.23a2.15,2.15,0,0,0-.93-1.68,3.86,3.86,0,0,0-2.31-.71h-17.22V16h17.22a2.15,2.15,0,0,1,1.25.38,1.13,1.13,0,0,1,.5.89V28.38c-.48-.37-1.09-.81-1.83-1.33-2.82-2-7-5-7.56-7.44h3a2.23,2.23,0,0,1,1.29.3,1.18,1.18,0,0,1,.43.95h1.49a2.1,2.1,0,0,0-.87-1.73,3.87,3.87,0,0,0-2.34-.64h-4.53v.56c0,3.06,4.68,6.38,8.1,8.81a15.09,15.09,0,0,1,2.86,2.28v0h1.5V17.23Z"/><path class="cls-1" d="M1025.86,30.45l-1.36-1c-5.7-4.2-8.82-7.1-8.9-10.42h-1.49l0,21.63h10.08a3,3,0,0,0,1.77-.55,1.61,1.61,0,0,0,.72-1.29c0-3.06-2.92-4.87-4.86-6.07-.63-.4-1.51-.94-1.55-1.16h-1.49v3.75h1.49V33.23c.19.12,4.91,3.05,4.91,5.58,0,.41-.44.74-1,.74h-8.58V23.18c1.52,2.15,4.17,4.37,7.85,7.07l1.36,1c4.86,3.54,5.6,4.09,5.6,8.57,0,1.61-.21,2.49-.7,2.85s-1.56.37-3.17.37h-15.1v1.12h15.09c1.91,0,3.31,0,4.24-.69s1.14-1.63,1.14-3.64C1031.92,34.86,1030.75,34,1025.86,30.45Z"/><path class="cls-1" d="M1038.25,30.14a16.16,16.16,0,0,1,2.87-2.28c3.42-2.43,8.1-5.75,8.1-8.81v-.56h-4.53c-2.37,0-3.22,1.22-3.22,2.37h1.5a1.14,1.14,0,0,1,.43-.95,2.23,2.23,0,0,1,1.29-.31h3c-.57,2.48-4.74,5.44-7.57,7.44-.75.53-1.35,1-1.84,1.34V17.24a1.09,1.09,0,0,1,.51-.89A2.07,2.07,0,0,1,1040,16h35.07a2.1,2.1,0,0,1,1.25.38,1.12,1.12,0,0,1,.49.89V28.38c-.48-.37-1.09-.81-1.84-1.33-2.82-2-7-5-7.56-7.44h3a2.23,2.23,0,0,1,1.29.3,1.18,1.18,0,0,1,.43.95h1.49a2.1,2.1,0,0,0-.87-1.73,3.87,3.87,0,0,0-2.34-.64h-4.53v.56c0,3.06,4.68,6.38,8.1,8.81,1.22.86,2.86,2.26,2.86,2.24h1.5V17.24a2.16,2.16,0,0,0-.94-1.69,3.9,3.9,0,0,0-2.3-.7H1040c-1.8,0-3.24,1.07-3.24,2.39V30.11Z"/><path class="cls-1" d="M1072.27,30.45l-1.35-1c-5.72-4.2-8.82-7.1-8.9-10.42h-1.5l0,21.07v.56h10.07a3,3,0,0,0,1.77-.55,1.63,1.63,0,0,0,.72-1.29c0-3.06-2.93-4.87-4.85-6.07-.65-.4-1.51-.94-1.55-1.16h-1.5v3.75h1.5V33.23l.6.37c1.82,1.13,4.31,2.68,4.31,5.21,0,.41-.45.74-1,.74H1062V23.18c1.52,2.15,4.16,4.37,7.84,7.07l1.37,1c4.85,3.54,5.6,4.09,5.6,8.57,0,1.61-.21,2.49-.7,2.85s-1.57.37-3.18.37h-30.82c-1.62,0-2.69,0-3.19-.36s-.7-1.24-.7-2.85c0-4.49.75-5,5.61-8.58l1.36-1c3.68-2.71,6.33-4.92,7.85-7.08V39.57h-8.59a1.23,1.23,0,0,1-.72-.22.67.67,0,0,1-.29-.51c0-2.54,2.5-4.09,4.33-5.22.2-.13.41-.25.58-.37v2.11h1.5V31.6h-1.5c0,.22-.9.76-1.54,1.16-1.93,1.19-4.85,3-4.86,6.07a1.61,1.61,0,0,0,.73,1.3,3,3,0,0,0,1.76.54h10.1V19.05h-1.5c-.07,3.32-3.18,6.23-8.9,10.42l-1.35,1c-4.89,3.57-6.06,4.41-6.06,9.37,0,2,.32,3,1.14,3.64s2.31.69,4.23.69h30.82c1.92,0,3.3,0,4.24-.69s1.14-1.63,1.14-3.64C1078.32,34.86,1077.17,34,1072.27,30.45Z"/><rect class="cls-1" x="1011.45" y="46.73" width="91.95" height="1.11"/><rect class="cls-1" x="1011.45" y="50.44" width="91.95" height="1.11"/><rect class="cls-1" x="1011.45" y="54.15" width="91.95" height="1.11"/><path class="cls-1" d="M1103.4,57.86h-92V59h92Z"/><rect class="cls-1" x="1103.4" width="91.95" height="1.11"/><rect class="cls-1" x="1103.4" y="3.71" width="91.95" height="1.11"/><rect class="cls-1" x="1103.4" y="11.13" width="91.95" height="1.11"/><rect class="cls-1" x="1103.4" y="7.42" width="91.95" height="1.11"/><path class="cls-1" d="M1176.19,30.1a.06.06,0,0,1,0,0,15.77,15.77,0,0,1,2.87-2.28c3.41-2.43,8.09-5.75,8.09-8.81v-.56h-4.53c-2.36,0-3.21,1.22-3.21,2.37h1.5a1.14,1.14,0,0,1,.43-.95,2.19,2.19,0,0,1,1.28-.31h3C1185,22.08,1180.84,25,1178,27c-.75.53-1.35,1-1.84,1.34V17.24a1.1,1.1,0,0,1,.5-.89,2.12,2.12,0,0,1,1.26-.39h17.45V14.85h-17.45c-1.8,0-3.25,1.07-3.25,2.39V30.11h1.5Z"/><path class="cls-1" d="M1195.36,43h-15.3c-1.61,0-2.69,0-3.18-.37s-.7-1.24-.7-2.85c0-4.48.75-5,5.61-8.57l1.36-1c3.68-2.7,6.33-4.92,7.85-7.08V39.56h-8.59a1.21,1.21,0,0,1-.72-.22.64.64,0,0,1-.28-.51c0-2.54,2.49-4.08,4.32-5.22l.59-.37v2.12h1.5V31.6h-1.5c0,.21-.91.75-1.55,1.15-1.93,1.2-4.85,3-4.85,6.07a1.64,1.64,0,0,0,.71,1.3,3,3,0,0,0,1.77.55h10.1V19.05H1191c-.08,3.32-3.18,6.23-8.9,10.42l-1.35,1c-4.9,3.57-6.06,4.41-6.06,9.37,0,2,.31,3,1.14,3.64s2.31.69,4.24.69h15.29V43Z"/><path class="cls-1" d="M1123.86,17.23a2.12,2.12,0,0,0-.93-1.68,3.86,3.86,0,0,0-2.31-.71H1103.4V16h17.22a2.13,2.13,0,0,1,1.25.38,1.14,1.14,0,0,1,.51.89V28.38c-.49-.37-1.1-.81-1.83-1.33-2.83-2-7-5-7.57-7.44h3a2.23,2.23,0,0,1,1.29.3,1.18,1.18,0,0,1,.43.95h1.49a2.09,2.09,0,0,0-.86-1.73,3.9,3.9,0,0,0-2.35-.64h-4.53v.56c0,3.06,4.68,6.38,8.1,8.81a15.82,15.82,0,0,1,2.88,2.28v0h1.49V17.23Z"/><path class="cls-1" d="M1117.81,30.45l-1.35-1c-5.71-4.2-8.83-7.1-8.9-10.42h-1.5l0,21.63h10.08a3,3,0,0,0,1.77-.55,1.61,1.61,0,0,0,.72-1.29c0-3.06-2.92-4.87-4.86-6.07-.63-.4-1.51-.94-1.55-1.16h-1.49v3.75h1.49V33.23c.19.12,4.93,3.05,4.92,5.58,0,.41-.45.74-1,.74h-8.58V23.18c1.51,2.15,4.16,4.37,7.84,7.07l1.36,1c4.86,3.54,5.61,4.09,5.61,8.57,0,1.61-.22,2.49-.7,2.85s-1.56.37-3.18.37h-15.1v1.12h15.09c1.92,0,3.31,0,4.24-.69s1.14-1.63,1.14-3.64C1123.86,34.86,1122.7,34,1117.81,30.45Z"/><path class="cls-1" d="M1130.19,30.14a16.77,16.77,0,0,1,2.88-2.28c3.42-2.43,8.1-5.75,8.1-8.81v-.56h-4.53c-2.36,0-3.21,1.22-3.21,2.37h1.49a1.17,1.17,0,0,1,.43-.95,2.23,2.23,0,0,1,1.29-.31h3C1139,22.08,1134.86,25,1132,27c-.74.53-1.35,1-1.84,1.34V17.24a1.09,1.09,0,0,1,.51-.89A2.07,2.07,0,0,1,1132,16H1167a2.1,2.1,0,0,1,1.25.38,1.09,1.09,0,0,1,.49.89V28.38c-.48-.37-1.09-.81-1.84-1.33-2.82-2-7-5-7.56-7.44h3a2.23,2.23,0,0,1,1.29.3,1.18,1.18,0,0,1,.43.95h1.49a2.1,2.1,0,0,0-.87-1.73,3.87,3.87,0,0,0-2.34-.64h-4.53v.56c0,3.06,4.68,6.38,8.1,8.81,1.22.86,2.86,2.26,2.86,2.24h1.5V17.24a2.16,2.16,0,0,0-.94-1.69,3.87,3.87,0,0,0-2.3-.7H1132c-1.79,0-3.24,1.07-3.24,2.39V30.11Z"/><path class="cls-1" d="M1164.22,30.45l-1.36-1c-5.71-4.2-8.81-7.1-8.9-10.42h-1.49l0,21.07v.56h10.06a3,3,0,0,0,1.77-.55,1.62,1.62,0,0,0,.73-1.29c0-3.06-2.93-4.87-4.86-6.07-.64-.4-1.51-.94-1.55-1.16h-1.49v3.75h1.49V33.23l.6.37c1.82,1.13,4.31,2.68,4.31,5.21,0,.41-.44.74-1,.74H1154V23.18c1.52,2.15,4.17,4.37,7.85,7.07l1.36,1c4.86,3.54,5.6,4.09,5.6,8.57,0,1.61-.21,2.49-.7,2.85s-1.57.37-3.18.37h-30.82c-1.62,0-2.69,0-3.18-.36s-.71-1.24-.71-2.85c0-4.49.75-5,5.62-8.58l1.35-1c3.68-2.71,6.33-4.92,7.86-7.08V39.57h-8.6a1.23,1.23,0,0,1-.72-.22.65.65,0,0,1-.28-.51c0-2.54,2.49-4.09,4.32-5.22l.59-.37v2.11h1.49V31.6h-1.49c0,.22-.91.76-1.55,1.16-1.94,1.19-4.86,3-4.87,6.07a1.61,1.61,0,0,0,.73,1.3,3,3,0,0,0,1.77.54h10.09V19.05H1145c-.08,3.32-3.19,6.23-8.9,10.42l-1.36,1c-4.89,3.57-6.06,4.41-6.06,9.37,0,2,.32,3,1.14,3.64s2.32.69,4.23.69h30.82c1.92,0,3.31,0,4.24-.69s1.14-1.63,1.14-3.64C1170.28,34.86,1169.11,34,1164.22,30.45Z"/><rect class="cls-1" x="1103.4" y="46.73" width="91.95" height="1.11"/><rect class="cls-1" x="1103.4" y="50.44" width="91.95" height="1.11"/><rect class="cls-1" x="1103.4" y="54.15" width="91.95" height="1.11"/><path class="cls-1" d="M1195.34,57.86h-91.95V59h91.95Z"/></g></g></svg>