<svg xmlns="http://www.w3.org/2000/svg" viewBox="0 0 40.67 40.67"><defs><style>.cls-1{fill:#ce788e;}.cls-2{fill:#fff;}</style></defs><title>Recurso 3</title><g id="Capa_2" data-name="Capa 2"><g id="Capa_1-2" data-name="Capa 1"><path class="cls-1" d="M32.75,40.67H7.92A7.93,7.93,0,0,1,0,32.75V7.92A7.93,7.93,0,0,1,7.92,0H32.75a7.93,7.93,0,0,1,7.92,7.92V32.75A7.92,7.92,0,0,1,32.75,40.67Z"/><path class="cls-2" d="M24.92,8.25H15.77a7.25,7.25,0,0,0-7.24,7.24v9.15a7.25,7.25,0,0,0,7.24,7.24h9.15a7.25,7.25,0,0,0,7.24-7.24V15.49A7.26,7.26,0,0,0,24.92,8.25Zm4,16.39a4.05,4.05,0,0,1-4.05,4.05H15.76a4.05,4.05,0,0,1-4-4.05V15.49a4.06,4.06,0,0,1,4-4.05h9.15A4.05,4.05,0,0,1,29,15.49Z"/><path class="cls-2" d="M20.34,14.17a5.9,5.9,0,1,0,5.9,5.9A5.9,5.9,0,0,0,20.34,14.17Zm0,9.52A3.62,3.62,0,1,1,24,20.07,3.62,3.62,0,0,1,20.34,23.69Z"/><circle class="cls-2" cx="26.24" cy="14.57" r="1.32"/></g></g></svg>