<svg xmlns="http://www.w3.org/2000/svg" viewBox="0 0 40 40"><defs><style>.cls-1{fill:#ce788e;}.cls-2{fill:#fff;}</style></defs><title>Recurso 2</title><g id="Capa_2" data-name="Capa 2"><g id="Capa_1-2" data-name="Capa 1"><path class="cls-1" d="M40,9.18A9.18,9.18,0,0,0,30.82,0H9.18A9.18,9.18,0,0,0,0,9.18V30.82A9.18,9.18,0,0,0,9.18,40H30.82A9.18,9.18,0,0,0,40,30.82Z"/><path class="cls-2" d="M20.14,17.34a1.55,1.55,0,0,0-1.37,1,4.55,4.55,0,0,0-.53,2.22,2.36,2.36,0,0,0,.35,1.4,1.11,1.11,0,0,0,.93.5,1.55,1.55,0,0,0,1.39-1,5.34,5.34,0,0,0,.5-2.53,1.85,1.85,0,0,0-.35-1.17A1.11,1.11,0,0,0,20.14,17.34Z"/><path class="cls-2" d="M26.54,8.48H13.87a5,5,0,0,0-5,5V26.17a5,5,0,0,0,5,5H26.54a5,5,0,0,0,5-5V13.5A5,5,0,0,0,26.54,8.48Zm.13,14.12a4,4,0,0,1-3.15,1.47,2.2,2.2,0,0,1-1.5-.49,1.69,1.69,0,0,1-.63-1.3h-.05A2.4,2.4,0,0,1,19,24.07a2.58,2.58,0,0,1-2.08-.94,3.87,3.87,0,0,1-.79-2.59,5.34,5.34,0,0,1,1.1-3.49,3.24,3.24,0,0,1,2.63-1.35,1.64,1.64,0,0,1,1.76,1.1h0l.1-.93h2.11c-.29,2.66-.43,4.4-.43,5.21s.23,1.31.71,1.31.91-.33,1.24-1a6,6,0,0,0,.48-2.6,4.86,4.86,0,0,0-1.39-3.59,5.23,5.23,0,0,0-3.9-1.4,5.9,5.9,0,0,0-4.45,1.87,6.36,6.36,0,0,0-1.77,4.55,5.4,5.4,0,0,0,1.57,4.1,6.07,6.07,0,0,0,4.33,1.49A9,9,0,0,0,24.07,25V26.8a10.52,10.52,0,0,1-4.12.68,8,8,0,0,1-5.62-2,6.82,6.82,0,0,1-2.17-5.32,7.78,7.78,0,0,1,2.31-5.73,8,8,0,0,1,6-2.33,8.1,8.1,0,0,1,5.45,1.8A6,6,0,0,1,28,18.68,5.83,5.83,0,0,1,26.67,22.6Z"/></g></g></svg>