<svg xmlns="http://www.w3.org/2000/svg" viewBox="0 0 40 40"><defs><style>.cls-1{fill:#ce788e;}.cls-2{fill:#fff;}</style></defs><title>Recurso 2</title><g id="Capa_2" data-name="Capa 2"><g id="Capa_1-2" data-name="Capa 1"><path class="cls-1" d="M40,9.18A9.18,9.18,0,0,0,30.82,0H9.18A9.18,9.18,0,0,0,0,9.18V30.82A9.18,9.18,0,0,0,9.18,40H30.82A9.18,9.18,0,0,0,40,30.82Z"/><path class="cls-2" d="M26.82,8.31H13.93a5.07,5.07,0,0,0-5.08,5.08V26.28a5.07,5.07,0,0,0,5.08,5.07H26.82a5.07,5.07,0,0,0,5.07-5.07V13.39A5.08,5.08,0,0,0,26.82,8.31ZM28.29,16s.48,4-3.13,8.18-9.88,4.4-14,1.82c0,0,4.12-.06,5.48-1.66,0,0-2.8-.22-3.38-2.71l1.5-.13a4.14,4.14,0,0,1-2.9-3.83,13.68,13.68,0,0,0,1.56.35,3.89,3.89,0,0,1-1-5.23s3.54,4.43,8,4c0,0-.63-3.53,2.33-4.41s4.37.94,4.37.94l2.48-.94a4.65,4.65,0,0,1-1.5,2.08s1.59-.38,2-.54A8.36,8.36,0,0,1,28.29,16Z"/></g></g></svg>