<svg xmlns="http://www.w3.org/2000/svg" viewBox="0 0 40 40"><defs><style>.cls-1{fill:#ce788e;}.cls-2{fill:#fff;}</style></defs><title>Recurso 1</title><g id="Capa_2" data-name="Capa 2"><g id="Capa_1-2" data-name="Capa 1"><path class="cls-1" d="M40,9.18A9.18,9.18,0,0,0,30.82,0H9.18A9.18,9.18,0,0,0,0,9.18V30.82A9.18,9.18,0,0,0,9.18,40H30.82A9.18,9.18,0,0,0,40,30.82Z"/><path class="cls-2" d="M26.83,8.41H13.38a5.18,5.18,0,0,0-5.29,5.07V26.37a5.19,5.19,0,0,0,5.29,5.07H26.83a5.18,5.18,0,0,0,5.29-5.07V13.48A5.17,5.17,0,0,0,26.83,8.41ZM14.16,27.53V14.12l14.06,6.71Z"/></g></g></svg>